<?xml version="1.0"?>
<svg xmlns="http://www.w3.org/2000/svg" viewBox="0 0 24 24">
    <path d="M 20.4375 4 L 18.84375 5.59375 L 19.4375 7.65625 L 21.46875 7.90625 L 20.4375 7.03125 L 22 5.71875 L 20.15625 5.46875 L 20.4375 4 z M 16.46875 4.3125 L 14.625 4.875 L 14.90625 5.78125 L 7.53125 7.9375 C 7.06225 8.0755 6.631 8.3965 6.375 8.8125 C 5.503 8.2395 4.22725 8.08275 2.90625 8.46875 L 3.46875 10.3125 C 4.52675 10.0035 5.34425 10.278 5.53125 10.625 C 5.43425 10.816 5.338 10.979 5.25 11.125 C 5.123 11.335 5.259 11.61225 5.5 11.65625 C 8.167 12.14625 9.21875 13.71875 9.21875 13.71875 C 9.75575 15.04575 10.7715 15.95725 12.6875 15.40625 C 14.1025 14.95125 14.86225 13.34575 14.65625 11.84375 L 14.125 10 L 18.75 8.65625 L 17.65625 4.96875 L 16.75 5.25 L 16.46875 4.3125 z M 11.46875 7.78125 L 11.75 8.71875 L 9 9.5 L 8.71875 8.59375 L 11.46875 7.78125 z M 12.03125 9.625 L 12.28125 10.5625 L 9.53125 11.34375 L 9.25 10.4375 L 12.03125 9.625 z M 12.84375 11.6875 C 13.09775 11.6705 13.25 11.7655 13.3125 12 C 13.4685 12.582 13.3895 13.6 12.3125 14 C 11.0935 14.453 10.4665 13.698 10.3125 13 C 10.1915 12.452 11.57175 12.051 11.71875 12 C 12.22425 11.8265 12.58975 11.7045 12.84375 11.6875 z M 4.84375 12.4375 C 3.50575 12.5665 2.02975 16.745 2.34375 20.75 C 2.61875 21.665 3.2305 22.17825 4.0625 21.90625 L 6.40625 21.25 C 7.07225 21.065 8.2815 20.352 7.3125 17 C 6.7375 15.009 9.0065 15.3335 8.5625 14.3125 C 8.1535 13.3745 6.28275 12.2995 4.84375 12.4375 z M 5.3125 14 C 5.8645 14 6.3125 14.448 6.3125 15 C 6.3125 15.552 5.8655 16 5.3125 16 C 4.7605 16 4.3125 15.552 4.3125 15 C 4.3125 14.448 4.7605 14 5.3125 14 z"/>
</svg>
